<?xml version="1.0" encoding="utf-8"?>
<!-- Generator: Adobe Illustrator 19.1.0, SVG Export Plug-In . SVG Version: 6.00 Build 0)  -->
<svg version="1.1" id="Layer_1" xmlns="http://www.w3.org/2000/svg" xmlns:xlink="http://www.w3.org/1999/xlink" x="0px" y="0px"
	 viewBox="0 0 6499 2466" style="enable-background:new 0 0 6499 2466;" xml:space="preserve">
<style type="text/css">
	.st0{fill:#42C2CB;}
	.st1{fill:#12B1B7;}
	.st2{fill:#133F69;}
</style>
<polygon class="st0" points="305.2,865.3 932.7,486.8 962.6,1232.1 305.2,1607.4 "/>
<polygon class="st0" points="2842.7,1600.7 2215.2,1979.2 2185.3,1233.9 2842.7,858.6 "/>
<polygon class="st1" points="305.2,1607.4 962.6,1981 1615,1607.4 962.6,1232.1 "/>
<polygon class="st1" points="2842.7,858.6 2185.3,485 1532.9,858.6 2185.3,1233.9 "/>
<g>
	<path class="st2" d="M3202.4,841.9c17.2,14.5,25.8,34.5,25.8,59.8c0,25.4-8.6,45.3-25.8,59.7c-17.2,14.4-41,21.6-71.4,21.6h-63.9
		v75.1h-25.2v-238h89.1C3161.3,820.2,3185.1,827.4,3202.4,841.9z M3184.4,945.5c12.5-10.3,18.7-24.9,18.7-43.7
		c0-19.3-6.2-34.1-18.7-44.4c-12.5-10.3-30.5-15.5-54.1-15.5h-63.2v119h63.2C3153.9,960.9,3171.9,955.8,3184.4,945.5z"/>
	<path class="st2" d="M3321.5,887.1c11.2-6.1,25.1-9.2,41.6-9.2v23.5l-5.8-0.3c-18.8,0-33.5,5.8-44.2,17.3
		c-10.7,11.6-16,27.8-16,48.6v91.1h-24.1V879.3h23.1v35C3301.9,902.3,3310.3,893.3,3321.5,887.1z"/>
	<path class="st2" d="M3406.4,835.1c-3.4-3.4-5.1-7.5-5.1-12.2c0-4.5,1.7-8.5,5.1-11.9c3.4-3.4,7.6-5.1,12.6-5.1
		c5,0,9.2,1.6,12.6,4.9c3.4,3.3,5.1,7.2,5.1,11.7c0,5-1.7,9.2-5.1,12.6c-3.4,3.4-7.6,5.1-12.6,5.1
		C3414,840.2,3409.8,838.5,3406.4,835.1z M3406.7,879.3h24.1v178.8h-24.1V879.3z"/>
	<path class="st2" d="M3774.1,897.3c12.8,12.9,19.2,32,19.2,57.1v103.7h-24.1V956.8c0-18.6-4.5-32.8-13.4-42.5
		c-9-9.7-21.6-14.6-37.9-14.6c-18.6,0-33.2,5.7-43.9,17.2c-10.7,11.4-16,27.3-16,47.4v93.8h-24.1V956.8c0-18.6-4.5-32.8-13.4-42.5
		c-9-9.7-21.7-14.6-38.3-14.6c-18.4,0-32.9,5.7-43.7,17.2c-10.8,11.4-16.2,27.3-16.2,47.4v93.8h-24.1V879.3h23.1V912
		c6.3-10.9,15.2-19.3,26.5-25.2c11.3-5.9,24.4-8.8,39.1-8.8c15,0,27.9,3.2,38.9,9.5c11,6.3,19.2,15.8,24.7,28.2
		c6.6-11.8,16-21,28.4-27.7c12.4-6.7,26.5-10,42.3-10C3743.6,878,3761.3,884.4,3774.1,897.3z"/>
	<path class="st2" d="M3975.2,895.5c12.5,11.7,18.7,29,18.7,51.9v110.8h-23.1v-27.9c-5.4,9.3-13.4,16.5-24,21.8
		c-10.5,5.2-23.1,7.8-37.6,7.8c-19.9,0-35.8-4.8-47.6-14.3c-11.8-9.5-17.7-22.1-17.7-37.7c0-15.2,5.5-27.4,16.5-36.7
		c11-9.3,28.5-13.9,52.5-13.9h56.8v-10.9c0-15.4-4.3-27.1-12.9-35.2c-8.6-8-21.2-12.1-37.7-12.1c-11.3,0-22.2,1.9-32.6,5.6
		c-10.4,3.7-19.4,8.9-26.9,15.5l-10.9-18c9.1-7.7,19.9-13.7,32.6-17.9c12.7-4.2,26.1-6.3,40.1-6.3
		C3944.8,878,3962.7,883.8,3975.2,895.5z M3948,1031.5c9.7-6.2,17-15.2,21.8-27v-29.2h-56.1c-30.6,0-45.9,10.7-45.9,32
		c0,10.4,4,18.6,11.9,24.7c7.9,6,19,9,33.3,9C3926.6,1040.8,3938.2,1037.7,3948,1031.5z"/>
	<path class="st2" d="M4125.8,968.4l-42.2,38.8v51h-24.1V805.9h24.1v171l106.8-97.6h29.9l-76.5,73.1l83.6,105.7h-29.6L4125.8,968.4z
		"/>
	<path class="st2" d="M4376.7,895.5c12.5,11.7,18.7,29,18.7,51.9v110.8h-23.1v-27.9c-5.4,9.3-13.4,16.5-24,21.8
		c-10.5,5.2-23.1,7.8-37.6,7.8c-19.9,0-35.8-4.8-47.6-14.3c-11.8-9.5-17.7-22.1-17.7-37.7c0-15.2,5.5-27.4,16.5-36.7
		c11-9.3,28.5-13.9,52.5-13.9h56.8v-10.9c0-15.4-4.3-27.1-12.9-35.2c-8.6-8-21.2-12.1-37.7-12.1c-11.3,0-22.2,1.9-32.6,5.6
		c-10.4,3.7-19.4,8.9-26.9,15.5l-10.9-18c9.1-7.7,19.9-13.7,32.6-17.9c12.7-4.2,26.1-6.3,40.1-6.3
		C4346.3,878,4364.3,883.8,4376.7,895.5z M4349.5,1031.5c9.7-6.2,17-15.2,21.8-27v-29.2h-56.1c-30.6,0-45.9,10.7-45.9,32
		c0,10.4,4,18.6,11.9,24.7c7.9,6,19,9,33.3,9C4328.1,1040.8,4339.8,1037.7,4349.5,1031.5z"/>
	<path class="st2" d="M4509.5,887.1c11.2-6.1,25.1-9.2,41.6-9.2v23.5l-5.8-0.3c-18.8,0-33.5,5.8-44.2,17.3
		c-10.7,11.6-16,27.8-16,48.6v91.1H4461V879.3h23.1v35C4489.8,902.3,4498.3,893.3,4509.5,887.1z"/>
	<path class="st2" d="M4710.6,895.5c12.5,11.7,18.7,29,18.7,51.9v110.8h-23.1v-27.9c-5.4,9.3-13.4,16.5-24,21.8
		c-10.5,5.2-23.1,7.8-37.6,7.8c-19.9,0-35.8-4.8-47.6-14.3c-11.8-9.5-17.7-22.1-17.7-37.7c0-15.2,5.5-27.4,16.5-36.7
		c11-9.3,28.5-13.9,52.5-13.9h56.8v-10.9c0-15.4-4.3-27.1-12.9-35.2c-8.6-8-21.2-12.1-37.7-12.1c-11.3,0-22.2,1.9-32.6,5.6
		c-10.4,3.7-19.4,8.9-26.9,15.5l-10.9-18c9.1-7.7,19.9-13.7,32.6-17.9c12.7-4.2,26.1-6.3,40.1-6.3
		C4680.2,878,4698.1,883.8,4710.6,895.5z M4683.4,1031.5c9.7-6.2,17-15.2,21.8-27v-29.2h-56.1c-30.6,0-45.9,10.7-45.9,32
		c0,10.4,4,18.6,11.9,24.7c7.9,6,19,9,33.3,9C4662,1040.8,4673.7,1037.7,4683.4,1031.5z"/>
</g>
<g>
	<path class="st2" d="M3027.7,1190.5h177.5c43.3,0,81.8,8.4,115.4,25.2s59.7,40.6,78.3,71.3c18.6,30.7,27.8,66.2,27.8,106.4
		c0,40.2-9.3,75.7-27.8,106.4c-18.6,30.7-44.7,54.5-78.3,71.3c-33.6,16.8-72.1,25.2-115.4,25.2h-177.5V1190.5z M3201.7,1532.7
		c29.8,0,56-5.7,78.6-17.1c22.6-11.4,40-27.6,52.2-48.7c12.2-21.1,18.3-45.5,18.3-73.4s-6.1-52.3-18.3-73.4
		c-12.2-21.1-29.6-37.3-52.2-48.7c-22.6-11.4-48.8-17.1-78.6-17.1h-98.6v278.4H3201.7z"/>
	<path class="st2" d="M3789.8,1464.9h-243c4.3,22.8,15.4,40.9,33.3,54.2c18,13.3,40.3,20,67,20c34,0,62.1-11.2,84.1-33.6l38.9,44.7
		c-13.9,16.6-31.5,29.2-52.8,37.7c-21.3,8.5-45.2,12.8-71.9,12.8c-34,0-64-6.8-89.9-20.3c-25.9-13.5-45.9-32.4-60-56.5
		c-14.1-24.2-21.2-51.5-21.2-82.1c0-30.2,6.9-57.3,20.6-81.5c13.7-24.2,32.8-43,57.1-56.5c24.4-13.5,51.8-20.3,82.4-20.3
		c30.2,0,57.1,6.7,80.9,20c23.8,13.3,42.3,32.1,55.7,56.3c13.3,24.2,20,52.1,20,83.8C3790.9,1448.4,3790.5,1455.6,3789.8,1464.9z
		 M3575.5,1361.9c-16,13.7-25.8,32-29.3,54.8h175.7c-3.1-22.4-12.6-40.6-28.4-54.5c-15.9-13.9-35.6-20.9-59.2-20.9
		C3611.1,1341.3,3591.5,1348.2,3575.5,1361.9z"/>
	<path class="st2" d="M4144.7,1286.8l-132.8,309.7h-74.8l-132.8-309.7h75.4l96.3,229.7l99.2-229.7H4144.7z"/>
	<path class="st2" d="M4471.3,1464.9h-243c4.3,22.8,15.4,40.9,33.3,54.2c18,13.3,40.3,20,67,20c34,0,62.1-11.2,84.1-33.6l38.9,44.7
		c-13.9,16.6-31.5,29.2-52.8,37.7c-21.3,8.5-45.2,12.8-71.9,12.8c-34,0-64-6.8-89.9-20.3c-25.9-13.5-45.9-32.4-60-56.5
		c-14.1-24.2-21.2-51.5-21.2-82.1c0-30.2,6.9-57.3,20.6-81.5c13.7-24.2,32.8-43,57.1-56.5c24.4-13.5,51.8-20.3,82.4-20.3
		c30.2,0,57.1,6.7,80.9,20c23.8,13.3,42.3,32.1,55.7,56.3c13.3,24.2,20,52.1,20,83.8C4472.4,1448.4,4472,1455.6,4471.3,1464.9z
		 M4256.9,1361.9c-16,13.7-25.8,32-29.3,54.8h175.7c-3.1-22.4-12.6-40.6-28.4-54.5c-15.9-13.9-35.6-20.9-59.2-20.9
		C4292.6,1341.3,4273,1348.2,4256.9,1361.9z"/>
	<path class="st2" d="M4542,1166.2h72.5v430.4H4542V1166.2z"/>
	<path class="st2" d="M4764.1,1580.3c-25.1-13.5-44.8-32.4-58.9-56.5c-14.1-24.2-21.2-51.5-21.2-82.1c0-30.5,7.1-57.8,21.2-81.8
		c14.1-24,33.7-42.7,58.9-56.3c25.1-13.5,53.4-20.3,84.7-20.3c31.7,0,60.1,6.8,85.3,20.3c25.1,13.5,44.8,32.3,58.9,56.3
		c14.1,24,21.2,51.2,21.2,81.8c0,30.5-7.1,57.9-21.2,82.1c-14.1,24.2-33.7,43-58.9,56.5c-25.1,13.5-53.6,20.3-85.3,20.3
		C4817.5,1600.6,4789.3,1593.8,4764.1,1580.3z M4914.9,1511.8c17.4-17.8,26.1-41.2,26.1-70.2s-8.7-52.4-26.1-70.2
		c-17.4-17.8-39.4-26.7-66.1-26.7c-26.7,0-48.6,8.9-65.8,26.7c-17.2,17.8-25.8,41.2-25.8,70.2s8.6,52.4,25.8,70.2
		c17.2,17.8,39.2,26.7,65.8,26.7C4875.5,1538.5,4897.5,1529.6,4914.9,1511.8z"/>
	<path class="st2" d="M5336.3,1303c23.8,13.2,42.4,31.7,56,55.7c13.5,24,20.3,51.6,20.3,82.9s-6.8,59.1-20.3,83.2
		c-13.5,24.2-32.2,42.8-56,56c-23.8,13.1-50.8,19.7-80.9,19.7c-41.8,0-74.8-13.9-99.2-41.8V1709h-72.5v-422.2h69v40.6
		c12-14.7,26.8-25.7,44.4-33.1c17.6-7.3,37-11,58.3-11C5285.6,1283.3,5312.5,1289.9,5336.3,1303z M5313.1,1511.8
		c17.2-17.8,25.8-41.2,25.8-70.2s-8.6-52.4-25.8-70.2c-17.2-17.8-39.2-26.7-65.8-26.7c-17.4,0-33.1,4-47,11.9
		c-13.9,7.9-24.9,19.2-33.1,33.9c-8.1,14.7-12.2,31.7-12.2,51c0,19.3,4.1,36.3,12.2,51c8.1,14.7,19.1,26,33.1,33.9
		c13.9,7.9,29.6,11.9,47,11.9C5274,1538.5,5295.9,1529.6,5313.1,1511.8z"/>
	<path class="st2" d="M5771.6,1464.9h-243c4.3,22.8,15.4,40.9,33.3,54.2c18,13.3,40.3,20,67,20c34,0,62.1-11.2,84.1-33.6l38.9,44.7
		c-13.9,16.6-31.5,29.2-52.8,37.7c-21.3,8.5-45.2,12.8-71.9,12.8c-34,0-64-6.8-89.9-20.3c-25.9-13.5-45.9-32.4-60-56.5
		c-14.1-24.2-21.2-51.5-21.2-82.1c0-30.2,6.9-57.3,20.6-81.5c13.7-24.2,32.8-43,57.1-56.5c24.4-13.5,51.8-20.3,82.4-20.3
		c30.2,0,57.1,6.7,80.9,20c23.8,13.3,42.3,32.1,55.7,56.3c13.3,24.2,20,52.1,20,83.8C5772.8,1448.4,5772.4,1455.6,5771.6,1464.9z
		 M5557.3,1361.9c-16,13.7-25.8,32-29.3,54.8h175.7c-3.1-22.4-12.6-40.6-28.4-54.5c-15.9-13.9-35.6-20.9-59.2-20.9
		C5593,1341.3,5573.3,1348.2,5557.3,1361.9z"/>
	<path class="st2" d="M6021.6,1283.3v69c-6.2-1.2-11.8-1.7-16.8-1.7c-28.2,0-50.3,8.2-66.1,24.6c-15.9,16.4-23.8,40.1-23.8,71v150.2
		h-72.5v-309.7h69v45.2C5932.2,1299.6,5969,1283.3,6021.6,1283.3z"/>
	<path class="st2" d="M6106.3,1590.7c-24-6.6-43.1-14.9-57.4-24.9l27.8-55.1c13.9,9.3,30.6,16.7,50.2,22.3
		c19.5,5.6,38.8,8.4,57.7,8.4c43.3,0,65-11.4,65-34.2c0-10.8-5.5-18.4-16.5-22.6c-11-4.3-28.7-8.3-53.1-12.2
		c-25.5-3.9-46.3-8.3-62.3-13.3c-16-5-30-13.8-41.8-26.4c-11.8-12.6-17.7-30.1-17.7-52.5c0-29.4,12.3-52.9,36.8-70.5
		c24.5-17.6,57.7-26.4,99.5-26.4c21.3,0,42.5,2.4,63.8,7.3c21.3,4.8,38.7,11.3,52.2,19.4l-27.8,55.1c-26.3-15.5-55.9-23.2-88.7-23.2
		c-21.3,0-37.4,3.2-48.4,9.6c-11,6.4-16.5,14.8-16.5,25.2c0,11.6,5.9,19.8,17.7,24.7c11.8,4.8,30.1,9.4,54.8,13.6
		c24.7,3.9,45,8.3,60.9,13.3c15.9,5,29.5,13.5,40.9,25.5c11.4,12,17.1,29,17.1,51c0,29-12.6,52.2-37.7,69.6
		c-25.1,17.4-59.4,26.1-102.7,26.1C6154.8,1600.6,6130.2,1597.3,6106.3,1590.7z"/>
</g>
</svg>
